<?xml version="1.0" encoding="iso-8859-1"?>
<!-- Generator: Adobe Illustrator 19.0.0, SVG Export Plug-In . SVG Version: 6.00 Build 0)  -->
<svg version="1.1" id="Layer_1" xmlns="http://www.w3.org/2000/svg" xmlns:xlink="http://www.w3.org/1999/xlink" x="0px" y="0px"
	 viewBox="0 0 512 512" style="enable-background:new 0 0 512 512;" xml:space="preserve">
<circle style="fill:#4AB8A1;" cx="256" cy="256" r="256"/>
<path style="fill:#43A691;" d="M503.9,320.14L432,140c0-4.4-3.6-8-8-8h-4v-1.852c-1.296-0.26-2.628-0.536-4-0.828v-1.224v-2.048V124
	c-20-4-47.816-12-92-12s-64,8-68,12c-0.292-0.296-0.704-0.616-1.172-0.948c-0.124-0.088-0.272-0.18-0.416-0.272
	c-0.412-0.268-0.876-0.548-1.396-0.832c-0.156-0.084-0.3-0.168-0.472-0.256c-2.252-1.18-5.484-2.464-9.764-3.708
	c-0.024-0.004-0.04-0.008-0.056-0.012c-4.416-1.28-9.984-2.5-16.796-3.508C216.04,113,203.564,112,188,112c-44.184,0-72,8-92,12
	v2.048v2.048V132h-8c-4.4,0-8,3.6-8,8v2.048v2.048V364v2.048v2.048V372v2.048V376l39.116,96.28C158.72,497.4,205.636,512,256,512
	C375.244,512,475.428,430.484,503.9,320.14z"/>
<path style="fill:#CC584C;" d="M424,132H88c-4.4,0-8,3.6-8,8v232c0,4.4,3.6,8,8,8h140c0,8.836,12.54,16,28,16s28-7.164,28-16h140
	c4.4,0,8-3.6,8-8V140C432,135.6,428.4,132,424,132z"/>
<rect x="264" y="132" style="fill:#BF5347;" width="160" height="236"/>
<path style="fill:#994239;" d="M424,372H284c0,8.836-12.54,16-28,16s-28-7.164-28-16H88c-4.4,0-8-3.6-8-8v8c0,4.4,3.6,8,8,8h140
	c0,8.836,12.54,16,28,16s28-7.164,28-16h140c4.4,0,8-3.6,8-8v-8C432,368.4,428.4,372,424,372z"/>
<path style="fill:#FFF8E6;" d="M188,112c-44.184,0-72,8-92,12v240h160V124C252,120,232.184,112,188,112z"/>
<path style="fill:#E6DBC3;" d="M256,364c0-11.044-23.816-20-68-20s-84,12-92,20H256z"/>
<path style="fill:#FFF8E6;" d="M324,112c44.184,0,72,8,92,12v240H256V124C260,120,279.816,112,324,112z"/>
<path style="fill:#E6DBC3;" d="M256,364c0-11.044,23.816-20,68-20s84,12,92,20H256z"/>
<path style="fill:#F2E7CE;" d="M256,340V124c-2.584-2.592-11.884-6.852-30.072-9.536L256,340z"/>
<rect x="100" y="364" style="fill:#BF5347;" width="164" height="4"/>
<g>
	<path style="fill:#F2E7CE;" d="M400,164c-42.668,0-85.332,0-128,0c0-11.2,0-16.8,0-28c46.728-7.228,81.272-7.232,128,0
		C400,147.2,400,152.8,400,164z"/>
	<rect x="292" y="184" style="fill:#F2E7CE;" width="108" height="8"/>
	<rect x="272" y="200" style="fill:#F2E7CE;" width="128" height="8"/>
	<rect x="272" y="216" style="fill:#F2E7CE;" width="128" height="8"/>
	<rect x="272" y="232" style="fill:#F2E7CE;" width="128" height="8"/>
	<rect x="272" y="248" style="fill:#F2E7CE;" width="128" height="8"/>
	<rect x="272" y="264" style="fill:#F2E7CE;" width="128" height="8"/>
	<rect x="272" y="280" style="fill:#F2E7CE;" width="128" height="8"/>
	<rect x="272" y="296" style="fill:#F2E7CE;" width="128" height="8"/>
	<rect x="272" y="312" style="fill:#F2E7CE;" width="108" height="8"/>
	<rect x="136" y="140" style="fill:#F2E7CE;" width="108" height="8"/>
	<rect x="116" y="156" style="fill:#F2E7CE;" width="128" height="8"/>
	<rect x="116" y="172" style="fill:#F2E7CE;" width="128" height="8"/>
	<rect x="116" y="188" style="fill:#F2E7CE;" width="128" height="8"/>
	<rect x="116" y="204" style="fill:#F2E7CE;" width="128" height="8"/>
	<rect x="116" y="220" style="fill:#F2E7CE;" width="128" height="8"/>
	<rect x="116" y="236" style="fill:#F2E7CE;" width="128" height="8"/>
	<rect x="116" y="252" style="fill:#F2E7CE;" width="128" height="8"/>
	<rect x="116" y="268" style="fill:#F2E7CE;" width="108" height="8"/>
</g>
<g>
</g>
<g>
</g>
<g>
</g>
<g>
</g>
<g>
</g>
<g>
</g>
<g>
</g>
<g>
</g>
<g>
</g>
<g>
</g>
<g>
</g>
<g>
</g>
<g>
</g>
<g>
</g>
<g>
</g>
</svg>
