<?xml version="1.0" encoding="iso-8859-1"?>
<!-- Generator: Adobe Illustrator 19.0.0, SVG Export Plug-In . SVG Version: 6.00 Build 0)  -->
<svg version="1.1" id="Layer_1" xmlns="http://www.w3.org/2000/svg" xmlns:xlink="http://www.w3.org/1999/xlink" x="0px" y="0px"
	 viewBox="0 0 508 508" style="enable-background:new 0 0 508 508;" xml:space="preserve">
<circle style="fill:#FD8469;" cx="254" cy="254" r="254"/>
<path style="fill:#324A5E;" d="M254,446.8c-106.4,0-192.8-86.4-192.8-192.8S147.6,61.2,254,61.2S446.8,147.6,446.8,254
	S360.4,446.8,254,446.8z"/>
<path style="fill:#E6E9EE;" d="M406.8,262.8c0-2.8,0.4-6,0.4-8.8c0-84.4-68.4-153.2-153.2-153.2c-84.4,0-153.2,68.4-153.2,153.2
	c0,2.8,0,6,0.4,8.8H406.8z"/>
<path style="fill:#FF7058;" d="M204.8,166.4c-0.8-1.2-2-1.6-3.2-0.8c-1.2,0.4-2,2-1.2,3.2l42,101.2c0.4,0.4,0.4,1.2,0.8,1.6
	c3.2,5.2,10,6.8,15.2,3.6c5.2-3.2,6.8-10,3.6-15.2L204.8,166.4z"/>
<circle style="fill:#FFD05B;" cx="254" cy="262.8" r="27.6"/>
<g>
	<path style="fill:#ACB3BA;" d="M254,136L254,136c-2.8,0-5.2-2.4-5.2-5.2V120c0-2.8,2.4-5.2,5.2-5.2l0,0c2.8,0,5.2,2.4,5.2,5.2v10.8
		C259.2,133.6,256.8,136,254,136z"/>
	<path style="fill:#ACB3BA;" d="M337.6,170.4L337.6,170.4c-2-2-2-5.2,0-7.2l7.6-7.6c2-2,5.2-2,7.2,0l0,0c2,2,2,5.2,0,7.2l-7.6,7.6
		C342.4,172.4,339.2,172.4,337.6,170.4z"/>
	<path style="fill:#ACB3BA;" d="M156,156L156,156c2-2,5.2-2,7.2,0l7.6,7.6c2,2,2,5.2,0,7.2l0,0c-2,2-5.2,2-7.2,0l-7.6-7.6
		C154,161.2,154,158,156,156z"/>
	<path style="fill:#ACB3BA;" d="M208.8,144.8L208.8,144.8c-2.4,1.2-5.6,0-6.4-2.8l-4-10c-1.2-2.4,0-5.6,2.8-6.4l0,0
		c2.4-1.2,5.6,0,6.4,2.8l4,10C212.8,140.8,211.6,144,208.8,144.8z"/>
	<path style="fill:#ACB3BA;" d="M363.2,208.8L363.2,208.8c-1.2-2.4,0-5.6,2.8-6.4l10-4c2.4-1.2,5.6,0,6.4,2.8l0,0
		c1.2,2.4,0,5.6-2.8,6.4l-10,4C367.2,212.8,364,211.6,363.2,208.8z"/>
	<path style="fill:#ACB3BA;" d="M299.2,144.8L299.2,144.8c-2.4-1.2-3.6-4-2.8-6.4l4-10c1.2-2.4,4-3.6,6.4-2.8l0,0
		c2.4,1.2,3.6,4,2.8,6.4l-4,10C304.8,144.8,301.6,146,299.2,144.8z"/>
	<path style="fill:#ACB3BA;" d="M125.6,200.8L125.6,200.8c1.2-2.4,4-3.6,6.4-2.8l10,4c2.4,1.2,3.6,4,2.8,6.4l0,0
		c-1.2,2.4-4,3.6-6.4,2.8l-10-4C126,206.4,124.8,203.6,125.6,200.8z"/>
</g>
<g>
	<circle style="fill:#2B3B4E;" cx="254" cy="82.4" r="10"/>
	<circle style="fill:#2B3B4E;" cx="254" cy="425.6" r="10"/>
	<circle style="fill:#2B3B4E;" cx="425.6" cy="254" r="10"/>
	<circle style="fill:#2B3B4E;" cx="82.4" cy="254" r="10"/>
</g>
<g>
</g>
<g>
</g>
<g>
</g>
<g>
</g>
<g>
</g>
<g>
</g>
<g>
</g>
<g>
</g>
<g>
</g>
<g>
</g>
<g>
</g>
<g>
</g>
<g>
</g>
<g>
</g>
<g>
</g>
</svg>
