<?xml version="1.0" encoding="iso-8859-1"?>
<!-- Generator: Adobe Illustrator 16.0.0, SVG Export Plug-In . SVG Version: 6.00 Build 0)  -->
<!DOCTYPE svg PUBLIC "-//W3C//DTD SVG 1.1//EN" "http://www.w3.org/Graphics/SVG/1.1/DTD/svg11.dtd">
<svg xmlns="http://www.w3.org/2000/svg" xmlns:xlink="http://www.w3.org/1999/xlink" version="1.1" id="Capa_1" x="0px" y="0px" width="512px" height="512px" viewBox="0 0 454.355 454.355" style="enable-background:new 0 0 454.355 454.355;" xml:space="preserve">
<g>
	<g>
		<path d="M227.178,48.175C101.911,48.175,0,144.153,0,262.126c0,50.51,19.048,99.542,53.634,138.066    c3.416,3.806,8.308,5.987,13.421,5.987h320.246c5.113,0,10.006-2.182,13.422-5.987c34.586-38.523,53.633-87.557,53.633-138.066    C454.355,144.152,352.445,48.175,227.178,48.175z M357.752,303.859c-1.84-0.916-3.805-1.382-5.838-1.382    c-5.021,0-9.529,2.789-11.766,7.277c-1.562,3.139-1.811,6.696-0.697,10.021c1.113,3.325,3.455,6.018,6.594,7.58l46.828,23.319    c-3.645,5.925-7.65,11.662-12.016,17.159l-1.805,2.271H75.304l-1.806-2.271c-4.811-6.057-8.331-11.162-12.021-17.168    l46.835-23.311c3.138-1.562,5.48-4.255,6.593-7.58c1.114-3.324,0.866-6.883-0.697-10.021c-2.236-4.489-6.745-7.279-11.765-7.279    c-2.034,0-3.997,0.466-5.836,1.382l-47.146,23.482c-8.755-20.708-13.388-42.918-13.388-65.214c0-8.202,0.613-16.273,1.773-24.183    l45.531,6.926c0.659,0.102,1.33,0.152,1.998,0.152c6.417,0,11.985-4.795,12.953-11.154c1.088-7.154-3.848-13.861-11.003-14.951    l-43.606-6.633c9.33-29.7,26.774-56.203,49.94-77.287l31.538,32.432c2.493,2.565,5.835,3.977,9.412,3.977    c3.437,0,6.685-1.32,9.148-3.716c2.515-2.445,3.926-5.722,3.975-9.228c0.049-3.506-1.27-6.821-3.714-9.335l-29.647-30.487    c28.327-19.346,62.563-31.608,99.68-33.964v44.528c0,7.238,5.889,13.127,13.126,13.127s13.125-5.889,13.125-13.127V84.674    c37.117,2.356,71.355,14.618,99.682,33.964l-29.648,30.488c-2.443,2.514-3.764,5.829-3.713,9.335    c0.049,3.505,1.459,6.782,3.973,9.226c2.465,2.397,5.715,3.717,9.15,3.717c3.576,0,6.918-1.412,9.412-3.976l31.537-32.432    c23.166,21.083,40.611,47.586,49.939,77.286l-43.605,6.634c-7.154,1.089-12.092,7.796-11.002,14.95    c0.967,6.358,6.535,11.154,12.953,11.154c0.668,0,1.338-0.051,1.992-0.15l45.537-6.928c1.16,7.91,1.773,15.98,1.773,24.184    c0,22.301-4.635,44.517-13.395,65.229L357.752,303.859z" fill="#91DC5A"/>
		<path d="M234.657,256.373l-41.191-91.438c-0.897-1.996-3.115-3.138-5.321-2.606c-2.493,0.601-4.028,3.109-3.427,5.602    l23.488,97.497c-5.781,6.966-7.905,16.686-4.759,25.877c4.805,14.035,20.078,21.518,34.113,16.714    c14.037-4.806,21.519-20.079,16.714-34.114C251.129,264.713,243.494,258.333,234.657,256.373z" fill="#91DC5A"/>
	</g>
</g>
<g>
</g>
<g>
</g>
<g>
</g>
<g>
</g>
<g>
</g>
<g>
</g>
<g>
</g>
<g>
</g>
<g>
</g>
<g>
</g>
<g>
</g>
<g>
</g>
<g>
</g>
<g>
</g>
<g>
</g>
</svg>
