<?xml version="1.0" encoding="iso-8859-1"?>
<!-- Generator: Adobe Illustrator 19.0.0, SVG Export Plug-In . SVG Version: 6.00 Build 0)  -->
<svg version="1.1" id="Layer_1" xmlns="http://www.w3.org/2000/svg" xmlns:xlink="http://www.w3.org/1999/xlink" x="0px" y="0px"
	 viewBox="0 0 512 512" style="enable-background:new 0 0 512 512;" xml:space="preserve">
<path style="fill:#57BAB7;" d="M509.54,89.156c-3.28-3.28-8.597-3.28-11.878,0l-98.409,98.409l-12.354-12.354l98.409-98.409
	c3.28-3.28,3.28-8.597,0-11.878c-3.28-3.28-8.597-3.28-11.878,0l-98.409,98.409l-12.354-12.354l98.409-98.409
	c3.28-3.28,3.28-8.597,0-11.878c-3.28-3.28-8.597-3.28-11.878,0L350.787,139.1l-12.354-12.354l98.409-98.409
	c3.28-3.28,3.28-8.597,0-11.878c-3.28-3.28-8.597-3.28-11.878,0L302.799,138.624c-18.412,18.411-22.297,45.835-11.68,68.063
	L42.115,427.701c-0.835,0.709-1.652,1.451-2.44,2.24c-15.57,15.569-15.57,40.814,0,56.384c15.57,15.569,40.814,15.569,56.384,0
	c0.788-0.788,1.531-1.605,2.24-2.44L319.312,234.88c22.228,10.616,49.653,6.73,68.064-11.68L509.54,101.035
	C512.82,97.755,512.82,92.438,509.54,89.156z"/>
<path style="fill:#FFFFFF;" d="M345.05,215.511c-5.048,0-10.133-1.101-14.88-3.369c-4.185-1.999-5.958-7.014-3.959-11.199
	c1.999-4.186,7.014-5.958,11.199-3.959c6.798,3.244,14.944,1.844,20.272-3.481c3.282-3.28,8.601-3.279,11.877,0.001
	c3.28,3.281,3.279,8.599-0.001,11.877C362.926,212.013,354.045,215.511,345.05,215.511z"/>
<path style="fill:#9AD6D4;" d="M181.559,101.035C122.765,42.241,50.84,25.013,17.105,58.748S0.599,164.406,59.394,223.2
	c28.865,28.865,73.066,33.009,106.361,12.478l220.305,248.207c0.709,0.835,1.451,1.651,2.24,2.44
	c15.569,15.569,40.814,15.569,56.384,0c15.569-15.57,15.569-40.814,0-56.384c-0.788-0.788-1.604-1.531-2.44-2.24L194.035,207.396
	C214.567,174.101,210.424,129.901,181.559,101.035z"/>
<path style="fill:#FFFFFF;" d="M120.444,223.29c-16.331,0-31.686-6.36-43.232-17.906c-25.075-25.076-42.556-53.471-49.226-79.96
	c-5.437-21.594-2.973-38.947,6.936-48.859c3.281-3.281,8.597-3.28,11.877-0.001c3.281,3.28,3.281,8.598,0.001,11.877
	c-5.324,5.325-6.291,17.923-2.525,32.88c5.94,23.588,21.854,49.223,44.814,72.183c8.375,8.374,19.51,12.986,31.355,12.986
	c4.64,0,8.399,3.759,8.399,8.399C128.844,219.53,125.083,223.29,120.444,223.29z M165.433,198.162c-1.504,0-3.026-0.403-4.401-1.251
	c-3.948-2.435-5.175-7.609-2.74-11.557c10.824-17.554,8.182-40.015-6.427-54.625c-3.28-3.28-3.28-8.598,0.001-11.877
	c3.28-3.28,8.598-3.279,11.877,0.001c20.136,20.137,23.774,51.111,8.846,75.319C171.002,196.744,168.249,198.162,165.433,198.162z"
	/>
<g>
</g>
<g>
</g>
<g>
</g>
<g>
</g>
<g>
</g>
<g>
</g>
<g>
</g>
<g>
</g>
<g>
</g>
<g>
</g>
<g>
</g>
<g>
</g>
<g>
</g>
<g>
</g>
<g>
</g>
</svg>
